<?xml version="1.0" encoding="UTF-8"?>
<svg width="32" height="32" version="1.1" viewBox="0 0 8.4667 8.4667" xmlns="http://www.w3.org/2000/svg" xmlns:cc="http://creativecommons.org/ns#" xmlns:dc="http://purl.org/dc/elements/1.1/" xmlns:rdf="http://www.w3.org/1999/02/22-rdf-syntax-ns#">
 <defs>
  <clipPath id="clipPath852">
   <rect transform="matrix(.99999 .005236 -.00085005 1 0 0)" x="-7.8314" y="-4.4768" width="7.9179" height="15.235" ry=".76841" d="m -7.0630025,-4.4768081 h 6.38104996 c 0.42569639,0 0.76840502,0.3427087 0.76840502,0.768405 V 9.9892973 c 0,0.4256967 -0.34270863,0.7684047 -0.76840502,0.7684047 H -7.0630025 c -0.4256964,0 -0.768405,-0.342708 -0.768405,-0.7684047 V -3.7084031 c 0,-0.4256963 0.3427086,-0.768405 0.768405,-0.768405 z" display="none" fill="#ff6d6d" fill-opacity=".66" stroke-miterlimit="0" stroke-width="0"/>
   <path class="powerclip" d="m-9.4604-3.4864h17.661v15.411h-17.661zm2.3974-0.99037c-0.4257 0-0.7684 0.34271-0.7684 0.7684v13.698c0 0.4257 0.34271 0.7684 0.7684 0.7684h6.381c0.4257 0 0.76841-0.34271 0.76841-0.7684v-13.698c0-0.4257-0.34271-0.7684-0.76841-0.7684z" fill="#ff6d6d" fill-opacity=".66" stroke-miterlimit="0" stroke-width="0"/>
  </clipPath>
  <clipPath id="clipPath856">
   <rect transform="matrix(.99998 .0069812 -.0025953 1 0 0)" x="39.285" y="30.519" width="39.927" height="76.822" ry="3.8748" display="none" fill="#ff6d6d" fill-opacity=".66" stroke-miterlimit="0" stroke-width="0"/>
   <path class="powerclip" d="m36.921 49.915h87.662v50.945h-87.662zm6.2397-19.396c-2.1466 0-3.8748 1.7282-3.8748 3.8748v69.072c0 2.1466 1.7282 3.8748 3.8748 3.8748h32.177c2.1466 0 3.8748-1.7282 3.8748-3.8748v-69.072c0-2.1466-1.7282-3.8748-3.8748-3.8748z" fill="#ff6d6d" fill-opacity=".66" stroke-miterlimit="0" stroke-width="0"/>
  </clipPath>
 </defs>
 <metadata>
  <rdf:RDF>
   <cc:Work rdf:about="">
    <dc:format>image/svg+xml</dc:format>
    <dc:type rdf:resource="http://purl.org/dc/dcmitype/StillImage"/>
    <dc:title/>
   </cc:Work>
  </rdf:RDF>
 </metadata>
 <g>
  <rect x="4.064e-8" y=".033409" width="8.5526" height="8.4858" ry=".20045" fill="#fff" stroke-miterlimit="0" stroke-width="0"/>
  <g transform="matrix(.1983 -.0013844 .0013844 .1983 -15.668 -10.529)" clip-path="url(#clipPath856)" fill="#5e5397" shape-rendering="auto" stroke-width="0">
   <path d="m61.267 95.017-16.993-0.095-0.91047-1.082c-0.86737-1.0308-0.91047-1.2812-0.91047-5.2883 0-3.9104 0.04756-4.2063 0.67631-4.2063 2.2932 0 5.9347-2.8586 7.1905-5.6444 0.94413-2.0945 0.9216-5.4012-0.04961-7.2813-1.3741-2.6601-5.0349-5.4187-7.191-5.4187-0.66607 0-0.69293-0.20772-0.57428-4.441 0.11488-4.0987 0.18552-4.4904 0.91648-5.0822 1.2314-0.99701 5.926-1.187 23.197-0.9386 8.5372 0.12277 19.769 0.22502 24.959 0.22723l9.4368 4e-3v1.18c0 0.74321 0.26884 1.4233 0.72621 1.8373 1.0558 0.95548 1.8905 0.30518 2.0294-1.5811l0.1098-1.4906 13.425 0.23079 0.85078 0.98981c0.79646 0.92661 0.85078 1.2589 0.85078 5.2035 0 3.9861-0.0383 4.2137-0.7094 4.2137-2.4697 0-6.5939 3.6311-7.4018 6.5169-0.56777 2.0279-0.28943 4.9435 0.64722 6.7795 0.87341 1.712 2.998 3.6775 4.6444 4.2964 3.2186 1.21 2.9086 0.6122 2.7683 5.3372-0.17898 6.0305 0.16204 5.7904-8.4243 5.9309l-6.6938 0.10958v-0.92652c0-1.3778-0.62277-2.2912-1.5622-2.2912-0.91653 0-1.2601 0.58493-1.2601 2.1455v1.0295l-11.377-0.0847c-6.2574-0.0466-19.024-0.12749-28.37-0.17976zm39.047-1.5876c7e-3 -1.5207 0.34226-1.9745 1.6511-2.2363 1.4001-0.28003 2.5768 0.79205 2.5768 2.3477v1.0816l5.9884-0.11143c7.4928-0.13941 7.259 0.018 7.6119-5.1258 0.27748-4.0449 0.57458-3.5166-2.6615-4.7331-1.6586-0.62355-3.7714-2.5868-4.67-4.3396-0.95609-1.8649-1.2434-5.9054-0.58111-8.1738 0.86307-2.9563 4.8885-6.4905 7.3926-6.4905 0.71489 0 0.73647-0.13564 0.62121-3.9059-0.15935-5.2123-0.10391-5.1774-8.3215-5.2311l-5.3799-0.0352v1.3406c0 1.6134-0.49713 2.1872-1.8949 2.1872-1.4324 0-2.3385-0.90966-2.3385-2.3477v-1.18l-18.433-0.0327c-37.707-0.0668-36.547-0.0835-37.498 0.53944-0.78721 0.5158-0.86693 0.80131-0.87046 3.1173-0.0022 1.4022-0.10228 3.1448-0.22255 3.8724-0.1921 1.1622-0.13258 1.3229 0.48997 1.3229 2.1321 0 5.82 2.7466 7.155 5.3287 1.3052 2.5245 1.2181 6.6895-0.1985 9.488-0.71828 1.419-3.4319 3.9109-4.4933 4.1262-0.53762 0.10905-1.0629 0.33652-1.1673 0.50549-0.10443 0.16898-0.57737 0.30723-1.051 0.30723-0.85513 0-0.86112 0.0244-0.86112 3.5007 0 3.2488 0.06553 3.5786 0.9106 4.5829l0.9106 1.0822 17.875 0.0947c9.8312 0.0521 22.28 0.13292 27.664 0.17961l9.7896 0.0849 5e-3 -1.1465zm0.57844-4.4375c-0.69308-0.76585-0.80415-3.9323-0.16051-4.576 0.23284-0.23284 1.0305-0.42334 1.7726-0.42334 1.1238 0 1.4068 0.15125 1.6933 0.90491 0.62795 1.6516 0.425 3.5845-0.44001 4.1904-1.0437 0.73104-2.1506 0.69397-2.8654-0.096zm2.8775-1.9351c0.22105-1.835-1.2294-3.0384-2.3324-1.9354-0.61279 0.61279-0.51942 2.4136 0.16431 3.1691 0.51401 0.56797 0.67978 0.58854 1.3229 0.16415 0.4044-0.26686 0.78475-0.8959 0.84522-1.3979zm-2.8708-5.3463c-0.7035-0.7035-0.82241-4.0478-0.16723-4.7029 0.23284-0.23283 0.99484-0.42333 1.6933-0.42333s1.4605 0.1905 1.6933 0.42333c0.47591 0.47591 0.56771 3.7418 0.1248 4.4399-0.48648 0.76672-2.6689 0.93841-3.3442 0.26308zm2.7939-1.4284c0.49204-1.9605-0.60643-3.5794-1.8852-2.7784-0.81744 0.51203-1.003 2.7014-0.28946 3.415 0.72059 0.7206 1.9223 0.36884 2.1746-0.63655zm-2.9751-6.3603c-0.50781-1.1145-0.53002-3.1558-0.0442-4.0635 0.42186-0.78826 2.7412-0.96266 3.4448-0.25903 0.23283 0.23283 0.42333 1.3123 0.42333 2.3989 0 2.3129-0.38454 2.8222-2.1306 2.8222-1.0335 0-1.3638-0.17526-1.6933-0.89854zm2.695-0.23035c0.23284-0.23283 0.42334-0.99483 0.42334-1.6933 0-1.9901-1.6455-2.9507-2.457-1.4343-1.0683 1.9962 0.59979 4.5616 2.0337 3.1276zm-2.5553-7.0635c-0.71762-1.0245-0.71452-3.5863 5e-3 -4.306 0.30491-0.30491 1.008-0.55437 1.5623-0.55437 1.5245 0 2.1167 0.82621 2.1167 2.9533 0 1.0145-0.1905 2.035-0.42333 2.2678-0.72614 0.72614-2.6485 0.51349-3.2608-0.36072zm2.5553-0.34483c0.93026-0.93026 0.18366-3.81-0.98777-3.81-0.57835 0-1.4111 1.1136-1.4111 1.887 0 0.93434 0.92493 2.3464 1.537 2.3464 0.24124 0 0.62911-0.1905 0.86194-0.42333z" color="#000000" color-rendering="auto" dominant-baseline="auto" image-rendering="auto" solid-color="#000000" stop-color="#000000" style="font-feature-settings:normal;font-variant-alternates:normal;font-variant-caps:normal;font-variant-east-asian:normal;font-variant-ligatures:normal;font-variant-numeric:normal;font-variant-position:normal;font-variation-settings:normal;inline-size:0;isolation:auto;mix-blend-mode:normal;shape-margin:0;shape-padding:0;text-decoration-color:#000000;text-decoration-line:none;text-decoration-style:solid;text-indent:0;text-orientation:mixed;text-transform:none;white-space:normal"/>
   <path d="m66.625 55.014c-8.6381-0.12422-14.13-0.14008-17.641 2e-3 -3.5102 0.14203-5.0372 0.35863-5.8945 1.0527-0.40319 0.32643-0.7398 0.78242-0.87695 1.543-0.13715 0.76055-0.17687 1.8817-0.23438 3.9336-0.05936 2.118-0.09174 3.2114-0.0039 3.8906 0.04391 0.3396 0.11502 0.63208 0.36328 0.85742 0.24826 0.22534 0.54635 0.23438 0.74023 0.23438 0.85349 0 2.2693 0.62366 3.5723 1.6055 1.3029 0.98181 2.5187 2.3027 3.1523 3.5293 0.85721 1.6595 0.89464 4.9199 0.03711 6.8223-0.57726 1.2806-1.7536 2.6516-3.0508 3.6699-1.2972 1.0183-2.7323 1.6641-3.6602 1.6641-0.19847 0-0.50299 0.03259-0.73438 0.25391-0.23139 0.22132-0.30655 0.49761-0.35938 0.82617-0.10565 0.65712-0.10938 1.6969-0.10938 3.6543 0 2.0055 0.0051 3.0736 0.13867 3.8496 0.13361 0.77602 0.45205 1.2492 0.89648 1.7773l1.0664 1.2676 16.73 0.09375 0.50586 2e-3c9.3458 0.05227 22.113 0.13505 28.369 0.18164l11.908 0.08789v-1.5605c0-0.74166 0.10117-1.2004 0.21289-1.3906s0.17327-0.22852 0.51953-0.22852c0.29905 0 0.50523 0.11588 0.69922 0.40039 0.19398 0.28452 0.33593 0.75564 0.33593 1.3652v1.4609l7.2305-0.11719c2.1442-0.0351 3.734-0.04658 4.9453-0.14063 1.2113-0.09405 2.0675-0.25853 2.7129-0.71289 0.64537-0.45436 0.95634-1.1812 1.0938-2.0742 0.1374-0.893 0.14485-2.0129 0.18945-3.5156 0.0698-2.3504 0.26293-3.3833-0.18359-4.2441-0.22327-0.43044-0.61952-0.70016-1.0859-0.9082-0.46643-0.20804-1.046-0.39295-1.8398-0.69141-1.4423-0.54223-3.5709-2.4935-4.3613-4.043-0.8533-1.6726-1.1298-4.5397-0.60938-6.3984 0.35674-1.2741 1.5352-2.8687 2.9199-4.0879s2.9998-2.0449 3.9766-2.0449c0.19753 0 0.48628-0.01285 0.73437-0.22461s0.33533-0.49774 0.39063-0.82617c0.11058-0.65687 0.10937-1.6947 0.10937-3.6895 0-1.9747-7e-3 -3.0478-0.13281-3.8184-0.12599-0.77058-0.4291-1.2461-0.84375-1.7285l-1.0059-1.168-6.9473-0.12109-7.2109-0.12305-0.14648 1.9863c-0.0641 0.87055-0.32466 1.3682-0.46875 1.4805-0.072 0.05613-0.0959 0.06166-0.19336 0.04297-0.0974-0.0187-0.27195-0.0972-0.48828-0.29297-0.32073-0.29026-0.55273-0.83102-0.55273-1.4473v-1.707l-9.9629-0.0039c-5.1837-0.002309-16.418-0.10393-24.953-0.22666zm49.605 1.4414 0.82812 0.01367 0.21485 0.25c-0.25898-0.15171-0.71478-0.17098-1.043-0.26367zm-72.396 0.4043c-0.08838 0.07587-0.14078 0.18471-0.2168 0.27344 0.05623-0.05407 0.04629-0.17446 0.13476-0.24609 0.01042-0.0084 0.06994-0.0188 0.08203-0.02734zm38.041 0.11133 17.906 0.03125v0.6543c0 0.82961 0.27023 1.567 0.78516 2.084 0.51492 0.51696 1.2524 0.79102 2.0801 0.79102 0.77092 0 1.4372-0.17331 1.8691-0.67188 0.43193-0.49857 0.55274-1.1822 0.55274-2.043v-0.81055l4.8496 0.03125c4.1095 0.02686 6.1364 0.11764 6.9062 0.60156 0.3849 0.24196 0.56096 0.54283 0.6914 1.1973 0.13045 0.65444 0.16131 1.6179 0.20118 2.9219 0.0576 1.8839 0.0691 2.8839 8e-3 3.2695-0.0307 0.19279-0.057 0.15739 8e-3 0.11133 0.0648-0.04607 0.0507-0.01758-0.11133-0.01758-1.4997 0-3.1736 0.96412-4.6582 2.2676-1.4846 1.3035-2.7608 2.9682-3.2383 4.6035-0.36043 1.2346-0.44978 2.8481-0.33789 4.4219 0.11188 1.5738 0.41637 3.0879 0.95508 4.1387 0.97861 1.9088 3.0916 3.892 4.9531 4.5918 0.8183 0.30763 1.4116 0.50634 1.7949 0.67383 0.38337 0.16748 0.51164 0.27672 0.58008 0.39844 0.0684 0.12172 0.11691 0.37227 0.10156 0.87891-0.0153 0.50663-0.0844 1.2355-0.15429 2.2539-0.0885 1.2897-0.14414 2.2384-0.27539 2.8828-0.13126 0.64437-0.29512 0.93542-0.62305 1.1562-0.65586 0.44165-2.4492 0.52593-6.1992 0.5957l-5.4512 0.10156v-0.54492c0-0.91058-0.34883-1.7174-0.93555-2.252-0.58671-0.53454-1.4169-0.78225-2.2715-0.61133-0.70332 0.14067-1.2746 0.36177-1.6348 0.84961-0.24401 0.33048-0.24967 0.82264-0.29883 1.2871l-0.13867-0.02734-2e-3 0.64062-0.0039 0.61719-9.2598-0.08008c-5.3864-0.046706-17.835-0.12758-27.666-0.17969l-17.631-0.09375-0.75391-0.89648c-0.40857-0.48556-0.55543-0.68584-0.66016-1.2129s-0.12695-1.4084-0.12695-3.0293c0-1.7379 0.02372-2.645 0.09375-2.9297 0.03502-0.14236 0.0071-0.05507-0.03125-0.03711-0.03833 0.01796 0.06021-0.0078 0.27148-0.0078 0.28804 0 0.56366-0.03916 0.81055-0.11133 0.24689-0.07217 0.48218-0.11308 0.6875-0.44531-0.0998 0.16148 0.01167 0.0041 0.18359-0.07031 0.17192-0.07445 0.40897-0.15028 0.64062-0.19727 0.41644-0.08447 0.80185-0.31223 1.2441-0.61719 0.44229-0.30496 0.9176-0.69389 1.3828-1.1211 0.93042-0.8544 1.8087-1.8289 2.2324-2.666 1.5077-2.9786 1.6134-7.2239 0.19531-9.9668-0.72335-1.3991-2.0232-2.7636-3.4316-3.8125-1.4084-1.0489-2.8973-1.8008-4.1895-1.8008-0.03216 0-0.02038-4.37e-4 -0.04492-2e-3 0.0089-0.04091-0.0063-0.22212 0.07422-0.70898 0.13466-0.81468 0.22628-2.5304 0.22852-3.957 0.0018-1.152 0.03738-1.787 0.12305-2.0938 0.08567-0.3068 0.1466-0.34602 0.50977-0.58398 0.27781-0.18204 0.18421-0.19817 0.74219-0.27539 0.55798-0.07722 1.6761-0.13538 3.9414-0.16797 4.5305-0.06517 13.672-0.04317 32.525-0.0098zm21.885 2.0176c-0.0207 0.03385-0.0168 0.15593-0.0391 0.18164-0.0166 0.01919-0.0883 0.01364-0.10742 0.03125 0.0554-0.06408 0.0995-0.14024 0.14649-0.21289zm-1.3359 2.2539c-0.71232-1e-6 -1.4441 0.21752-1.9336 0.70703-0.58031 0.58048-0.69421 1.4802-0.69531 2.4121-7.45e-4 0.63148 0.23329 1.1794 0.42774 1.7402h-0.37696l0.58008 0.82813c0.44318 0.63274 1.2058 0.91842 1.9609 1.002 0.75515 0.08353 1.558-0.02481 2.1035-0.57031 0.16881-0.16881 0.22565-0.32699 0.28907-0.50781 0.0634-0.18082 0.1143-0.38465 0.15625-0.60938 0.0839-0.44945 0.13281-0.98324 0.13281-1.5234 0-1.1124-0.13836-1.9556-0.58594-2.5801s-1.2012-0.89844-2.0586-0.89844zm0.00195 1.7578c0.0771 0 0.20112 0.05275 0.36133 0.25977 0.16021 0.20701 0.31621 0.53998 0.41016 0.90234 0.18789 0.72472 0.067 1.5267-0.15625 1.75-0.12764 0.12763-0.52617 0.26758-0.49024 0.26758 0.0494 0-0.038-0.0071-0.1582-0.10938-0.12022-0.10227-0.26649-0.27317-0.39844-0.47461-0.2639-0.40288-0.45312-0.94094-0.45312-1.2344 0-0.19771 0.15429-0.61434 0.38281-0.91992 0.22851-0.30558 0.5507-0.44141 0.50195-0.44141zm-0.17578 5.6445c-0.40594 0.03052-0.80216 0.11091-1.1562 0.25391-0.35409 0.14299-0.68841 0.34404-0.88477 0.71094-0.32196 0.60157-0.42103 1.3889-0.4121 2.209 0.0089 0.82009 0.13842 1.6573 0.4414 2.3223l0.14063 0.30859h0.11914c0.15781 0.2481 0.29316 0.51943 0.55468 0.6582 0.38409 0.20381 0.81091 0.24023 1.3574 0.24023 0.46211 0 0.85917-0.03096 1.2207-0.13867 0.36153-0.10771 0.69213-0.31349 0.91992-0.61523 0.45559-0.60348 0.51758-1.4101 0.51758-2.5957 0-0.57405-0.0496-1.1396-0.13281-1.6113-0.0416-0.23588-0.0915-0.44756-0.1543-0.63477-0.0628-0.1872-0.11435-0.34872-0.29102-0.52539-0.57172-0.57172-1.4284-0.64308-2.2402-0.58203zm1.3027 1.291c0.0361 0.0195 0.17536 0.01911 0.19336 0.03711-0.0602-0.06025-1e-3 5.96e-4 0.0371 0.11524 0.0115 0.03438 0.0233 0.10096 0.0352 0.14453-0.0766-0.11493-0.17365-0.20113-0.26563-0.29688zm-2.4062 0.16602c-3e-3 4e-3 -7e-3 0.0057-0.01 0.0098 3.6e-4 -6.88e-4 -3.7e-4 -0.0032 0-0.0039 3.9e-4 -7.35e-4 9e-3 -5e-3 0.01-0.0059zm1.1289 0.26563c0.11701-0.04015 0.22436-0.03097 0.37109 0.05469 0.29348 0.17132 0.66211 0.72623 0.66211 1.5762 0 0.30139-0.0421 0.6332-0.10742 0.89453-0.0653 0.26133-0.19604 0.46362-0.16015 0.42773-0.26689 0.26688-0.43329 0.28529-0.59571 0.25195-0.16242-0.03333-0.37141-0.17546-0.54687-0.44531-0.35093-0.5397-0.49078-1.4996-0.0547-2.3145 0.15704-0.29344 0.31463-0.40516 0.43164-0.44531zm-51.191 2.4023c0.01349 0.06705 0.03077 0.12726 0.04297 0.19531-0.01493-0.06585-0.02663-0.13044-0.04297-0.19531zm50.328 1.2266c0.0812 0.08165 0.17872 0.13305 0.27148 0.19922-0.0263-0.0094-0.11744-0.0074-0.13671-0.01758-0.0468-0.0248-0.0935-0.13746-0.13477-0.18164zm1.0137 2.0625c-0.39711 0-0.79789 0.0525-1.1504 0.14062-0.3525 0.08813-0.6473 0.16684-0.91601 0.43555-0.32779 0.32778-0.41801 0.73436-0.4961 1.1992-0.07809 0.46486-0.10292 0.9929-0.08398 1.5254 0.01893 0.53249 0.08093 1.0655 0.19141 1.5332 0.11047 0.46771 0.23852 0.87329 0.55663 1.1914 0.55396 0.55396 1.3737 0.6221 2.1562 0.56055 0.78251-0.06156 1.5794-0.24498 2.0039-0.91406 0.21464-0.33828 0.26253-0.69955 0.3125-1.1445 0.05-0.44498 0.0649-0.95438 0.0508-1.457-0.0141-0.50265-0.0556-0.99685-0.13086-1.418-0.0752-0.42112-0.10379-0.75028-0.42969-1.0762-0.26871-0.26872-0.56351-0.34742-0.91601-0.43555-0.3525-0.08813-0.75133-0.14062-1.1484-0.14062zm1.0332 1.2148c0.13625 0.05597 0.3112 0.13151 0.28711 0.10742-0.0223-0.02234 0.0309 0.1128 0.0352 0.13086-0.0817-0.1106-0.22093-0.14744-0.32227-0.23828zm-2.1211 0.01953c-0.13469 0.12507-0.2512 0.26217-0.3418 0.41992 0.0463-0.12322 0.10753-0.33213 0.10743-0.33203-0.0197 0.01966 0.14053-0.04558 0.23437-0.08789zm1.2441 0.54297c0.1273 0.03228 0.26593 0.12594 0.39649 0.31836 0.26111 0.38483 0.41829 1.1427 0.20312 2-0.16332 0.65071-0.83796 0.84564-1.291 0.39258-0.15026-0.15026-0.32859-0.76257-0.27734-1.3672 0.0512-0.60462 0.3368-1.1422 0.47461-1.2285 0.22333-0.13989 0.36684-0.14752 0.49414-0.11523zm-52.229 1.7715c-0.03814 0.08263-0.05131 0.18759-0.0918 0.26758-0.04888 0.09657-0.25553 0.27662-0.33203 0.39258 0.15142-0.21829 0.29466-0.43633 0.42383-0.66016zm53.461 1.4883c-3e-3 0.0069-0.0149 0.06923-0.0156 0.07031-2e-3 0.0024-0.0272 0.0091-0.0293 0.01172 0.0205-0.02255 0.0255-0.05835 0.0449-0.08203zm-55.344 0.89258c-0.09099 0.08819-0.12055 0.16521-0.21289 0.25-0.10465 0.0961-0.19979 0.15706-0.30469 0.24805 0.18078-0.15788 0.34482-0.33012 0.51758-0.49805zm-1.4512 1.2559c-0.0096 0.0067-0.02171 0.01881-0.03125 0.02539-0.02658 0.01833-0.0324 0.01391-0.05859 0.03125 0.02977-0.02126 0.06015-0.03506 0.08984-0.05664zm55.484 0.22266c-0.41611 0-0.83339 0.0513-1.1992 0.13867-0.36583 0.08737-0.66709 0.16123-0.94531 0.43945-0.3189 0.31889-0.41244 0.71166-0.49024 1.1602-0.0778 0.4485-0.10202 0.95861-0.08398 1.4727 0.01803 0.51405 0.07735 1.0297 0.18555 1.4883 0.1082 0.45857 0.24156 0.85958 0.53124 1.1797l0.91603 1.0137v-0.58203c0.26391 0.112 0.47813 0.34974 0.76561 0.35938 0.63169 0.02116 1.2801-0.1991 1.877-0.61719 0.63213-0.44277 0.91014-1.2243 1-2.0801 0.0899-0.85578-0.0262-1.8213-0.3711-2.7285-0.15958-0.41972-0.38396-0.8015-0.77733-1.0117-0.39338-0.21022-0.8227-0.23242-1.4082-0.23242zm-59.383 1.3672c-0.04125 0.03945-0.06745 0.03557 0.0078 0.03516-0.0077 0.0079-0.01209 0.01723-0.01953 0.02539-3.21e-4 -0.0021 0.02359-0.0719 0.01172-0.06055zm59.201 0.39258c0.14471-0.0069 0.29033 0.04067 0.4414 0.16602 0.30215 0.2507 0.57496 0.83341 0.48242 1.6016-0.0354 0.29355-0.39772 0.88053-0.61132 1.0215-0.30095 0.19859-0.40176 0.20129-0.35547 0.20703 0.0463 0.0057-0.0469-0.01971-0.28711-0.28516-0.21023-0.2323-0.40609-0.78195-0.4336-1.3125-0.0275-0.53055 0.1354-1.0163 0.25-1.1309 0.20113-0.20113 0.36896-0.26072 0.51368-0.26758zm1.3476 2.918c-0.0845 0.15176-0.12503 0.44881-0.21484 0.51172-0.0437 0.03058-0.0778 0.01395-0.1211 0.04102 0.17136-0.14076 0.20894-0.37029 0.33594-0.55274zm-1.877 3.6875c-0.27503 0.08682-0.54243 0.16795-0.73047 0.38281 6e-3 -0.01 5e-3 -0.05347 0.0117-0.0625 0.0986-0.13352 0.40958-0.22471 0.71875-0.32031zm1.1289 0.10352c0.15848 0.06691 0.37173 0.01418 0.50195 0.13281 0.0433 0.03946 0.0326 0.13659 0.0723 0.18164-0.16219-0.158-0.3693-0.22136-0.57421-0.31445zm15.328 0.71484c-1.3e-4 8.78e-4 1.3e-4 3e-3 0 0.0039-0.11732 0.76245-0.29317 1.1161-0.6582 1.373-0.0287 0.02017-0.13929 0.02182-0.17188 0.04102 0.41746-0.35083 0.67777-0.83793 0.83008-1.418z" color="#000000" color-rendering="auto" dominant-baseline="auto" image-rendering="auto" solid-color="#000000" stop-color="#000000" style="font-feature-settings:normal;font-variant-alternates:normal;font-variant-caps:normal;font-variant-east-asian:normal;font-variant-ligatures:normal;font-variant-numeric:normal;font-variant-position:normal;font-variation-settings:normal;inline-size:0;isolation:auto;mix-blend-mode:normal;shape-margin:0;shape-padding:0;text-decoration-color:#000000;text-decoration-line:none;text-decoration-style:solid;text-indent:0;text-orientation:mixed;text-transform:none;white-space:normal"/>
  </g>
  <path transform="rotate(-.3)" x="-4.3711514" y="1.6027977" width="7.4820375" height="5.232945" ry="0.10803641" d="m-4.2631 1.6028h7.266c0.059852 0 0.10804 0.048184 0.10804 0.10804v5.0169c0 0.059852-0.048184 0.10804-0.10804 0.10804h-7.266c-0.059852 0-0.10804-0.048184-0.10804-0.10804v-5.0169c0-0.059852 0.048184-0.10804 0.10804-0.10804z" clip-path="url(#clipPath852)" fill="#fff" stroke="#5e5397" stroke-width=".17848" style="paint-order:normal"/>
 </g>
</svg>
